# Blender 4.5.1 LTS
# www.blender.org
mtllib TA_BASE.mtl
o TA
v 0.000000 1.131329 -2.450000
v 1.574829 -0.000000 -1.876809
v 0.000000 -0.000000 -2.450000
v 0.000000 1.131329 -2.450000
v 1.574829 1.131329 -1.876809
v 1.574829 -0.000000 -1.876809
v 1.574829 1.131329 -1.876809
v 2.412779 -0.000000 -0.425438
v 1.574829 -0.000000 -1.876809
v 1.574829 1.131329 -1.876809
v 2.412779 1.131330 -0.425438
v 2.412779 -0.000000 -0.425438
v 2.412779 1.131330 -0.425438
v 2.121762 0.000000 1.225000
v 2.412779 -0.000000 -0.425438
v 2.412779 1.131330 -0.425438
v 2.121762 1.131330 1.225000
v 2.121762 0.000000 1.225000
v 2.121762 1.131330 1.225000
v 0.837949 0.000000 2.302247
v 2.121762 0.000000 1.225000
v 2.121762 1.131330 1.225000
v 0.837949 1.131330 2.302247
v 0.837949 0.000000 2.302247
v 0.837949 1.131330 2.302247
v -0.837950 0.000000 2.302247
v 0.837949 0.000000 2.302247
v 0.837949 1.131330 2.302247
v -0.837950 1.131330 2.302247
v -0.837950 0.000000 2.302247
v -0.837950 1.131330 2.302247
v -2.121762 0.000000 1.225000
v -0.837950 0.000000 2.302247
v -0.837950 1.131330 2.302247
v -2.121762 1.131330 1.225000
v -2.121762 0.000000 1.225000
v -2.121762 1.131330 1.225000
v -2.412779 -0.000000 -0.425438
v -2.121762 0.000000 1.225000
v -2.121762 1.131330 1.225000
v -2.412779 1.131330 -0.425438
v -2.412779 -0.000000 -0.425438
v -2.412779 1.131330 -0.425438
v -1.574830 -0.000000 -1.876809
v -2.412779 -0.000000 -0.425438
v -2.412779 1.131330 -0.425438
v -1.574830 1.131329 -1.876809
v -1.574830 -0.000000 -1.876809
v -1.574830 1.131329 -1.876809
v 0.000000 -0.000000 -2.450000
v -1.574830 -0.000000 -1.876809
v -1.574830 1.131329 -1.876809
v 0.000000 1.131329 -2.450000
v 0.000000 -0.000000 -2.450000
v 0.000000 2.262659 -2.450000
v 1.574829 1.131329 -1.876809
v 0.000000 1.131329 -2.450000
v 0.000000 2.262659 -2.450000
v 1.574829 2.262659 -1.876809
v 1.574829 1.131329 -1.876809
v 1.574829 2.262659 -1.876809
v 2.412779 1.131330 -0.425438
v 1.574829 1.131329 -1.876809
v 1.574829 2.262659 -1.876809
v 2.412779 2.262659 -0.425438
v 2.412779 1.131330 -0.425438
v 2.412779 2.262659 -0.425438
v 2.121762 1.131330 1.225000
v 2.412779 1.131330 -0.425438
v 2.412779 2.262659 -0.425438
v 2.121762 2.262659 1.225000
v 2.121762 1.131330 1.225000
v 2.121762 2.262659 1.225000
v 0.837949 1.131330 2.302247
v 2.121762 1.131330 1.225000
v 2.121762 2.262659 1.225000
v 0.837949 2.262659 2.302247
v 0.837949 1.131330 2.302247
v 0.837949 2.262659 2.302247
v -0.837950 1.131330 2.302247
v 0.837949 1.131330 2.302247
v 0.837949 2.262659 2.302247
v -0.837950 2.262659 2.302247
v -0.837950 1.131330 2.302247
v -0.837950 2.262659 2.302247
v -2.121762 1.131330 1.225000
v -0.837950 1.131330 2.302247
v -0.837950 2.262659 2.302247
v -2.121762 2.262659 1.225000
v -2.121762 1.131330 1.225000
v -2.121762 2.262659 1.225000
v -2.412779 1.131330 -0.425438
v -2.121762 1.131330 1.225000
v -2.121762 2.262659 1.225000
v -2.412779 2.262659 -0.425438
v -2.412779 1.131330 -0.425438
v -2.412779 2.262659 -0.425438
v -1.574830 1.131329 -1.876809
v -2.412779 1.131330 -0.425438
v -2.412779 2.262659 -0.425438
v -1.574830 2.262659 -1.876809
v -1.574830 1.131329 -1.876809
v -1.574830 2.262659 -1.876809
v 0.000000 1.131329 -2.450000
v -1.574830 1.131329 -1.876809
v -1.574830 2.262659 -1.876809
v 0.000000 2.262659 -2.450000
v 0.000000 1.131329 -2.450000
v 0.000000 3.393988 -2.450000
v 1.574829 2.262659 -1.876809
v 0.000000 2.262659 -2.450000
v 0.000000 3.393988 -2.450000
v 1.574829 3.393988 -1.876809
v 1.574829 2.262659 -1.876809
v 1.574829 3.393988 -1.876809
v 2.412779 2.262659 -0.425438
v 1.574829 2.262659 -1.876809
v 1.574829 3.393988 -1.876809
v 2.412779 3.393989 -0.425438
v 2.412779 2.262659 -0.425438
v 2.412779 3.393989 -0.425438
v 2.121762 2.262659 1.225000
v 2.412779 2.262659 -0.425438
v 2.412779 3.393989 -0.425438
v 2.121762 3.393989 1.225000
v 2.121762 2.262659 1.225000
v 2.121762 3.393989 1.225000
v 0.837949 2.262659 2.302247
v 2.121762 2.262659 1.225000
v 2.121762 3.393989 1.225000
v 0.837949 3.393989 2.302247
v 0.837949 2.262659 2.302247
v 0.837949 3.393989 2.302247
v -0.837950 2.262659 2.302247
v 0.837949 2.262659 2.302247
v 0.837949 3.393989 2.302247
v -0.837950 3.393989 2.302247
v -0.837950 2.262659 2.302247
v -0.837950 3.393989 2.302247
v -2.121762 2.262659 1.225000
v -0.837950 2.262659 2.302247
v -0.837950 3.393989 2.302247
v -2.121762 3.393989 1.225000
v -2.121762 2.262659 1.225000
v -2.121762 3.393989 1.225000
v -2.412779 2.262659 -0.425438
v -2.121762 2.262659 1.225000
v -2.121762 3.393989 1.225000
v -2.412779 3.393989 -0.425438
v -2.412779 2.262659 -0.425438
v -2.412779 3.393989 -0.425438
v -1.574830 2.262659 -1.876809
v -2.412779 2.262659 -0.425438
v -2.412779 3.393989 -0.425438
v -1.574830 3.393988 -1.876809
v -1.574830 2.262659 -1.876809
v -1.574830 3.393988 -1.876809
v 0.000000 2.262659 -2.450000
v -1.574830 2.262659 -1.876809
v -1.574830 3.393988 -1.876809
v 0.000000 3.393988 -2.450000
v 0.000000 2.262659 -2.450000
v 0.000000 4.525318 -2.450000
v 1.574829 3.393988 -1.876809
v 0.000000 3.393988 -2.450000
v 0.000000 4.525318 -2.450000
v 1.574829 4.525318 -1.876809
v 1.574829 3.393988 -1.876809
v 1.574829 4.525318 -1.876809
v 2.412779 3.393989 -0.425438
v 1.574829 3.393988 -1.876809
v 1.574829 4.525318 -1.876809
v 2.412779 4.525318 -0.425438
v 2.412779 3.393989 -0.425438
v 2.412779 4.525318 -0.425438
v 2.121762 3.393989 1.225000
v 2.412779 3.393989 -0.425438
v 2.412779 4.525318 -0.425438
v 2.121762 4.525318 1.225000
v 2.121762 3.393989 1.225000
v 2.121762 4.525318 1.225000
v 0.837949 3.393989 2.302247
v 2.121762 3.393989 1.225000
v 2.121762 4.525318 1.225000
v 0.837949 4.525318 2.302247
v 0.837949 3.393989 2.302247
v 0.837949 4.525318 2.302247
v -0.837950 3.393989 2.302247
v 0.837949 3.393989 2.302247
v 0.837949 4.525318 2.302247
v -0.837950 4.525318 2.302247
v -0.837950 3.393989 2.302247
v -0.837950 4.525318 2.302247
v -2.121762 3.393989 1.225000
v -0.837950 3.393989 2.302247
v -0.837950 4.525318 2.302247
v -2.121762 4.525318 1.224999
v -2.121762 3.393989 1.225000
v -2.121762 4.525318 1.224999
v -2.412779 3.393989 -0.425438
v -2.121762 3.393989 1.225000
v -2.121762 4.525318 1.224999
v -2.412779 4.525318 -0.425438
v -2.412779 3.393989 -0.425438
v -2.412779 4.525318 -0.425438
v -1.574830 3.393988 -1.876809
v -2.412779 3.393989 -0.425438
v -2.412779 4.525318 -0.425438
v -1.574830 4.525318 -1.876809
v -1.574830 3.393988 -1.876809
v -1.574830 4.525318 -1.876809
v 0.000000 3.393988 -2.450000
v -1.574830 3.393988 -1.876809
v -1.574830 4.525318 -1.876809
v 0.000000 4.525318 -2.450000
v 0.000000 3.393988 -2.450000
v 0.000000 5.656647 -2.450001
v 1.574829 4.525318 -1.876809
v 0.000000 4.525318 -2.450000
v 0.000000 5.656647 -2.450001
v 1.574829 5.656647 -1.876809
v 1.574829 4.525318 -1.876809
v 1.574829 5.656647 -1.876809
v 2.412779 4.525318 -0.425438
v 1.574829 4.525318 -1.876809
v 1.574829 5.656647 -1.876809
v 2.412779 5.656647 -0.425439
v 2.412779 4.525318 -0.425438
v 2.412779 5.656647 -0.425439
v 2.121762 4.525318 1.225000
v 2.412779 4.525318 -0.425438
v 2.412779 5.656647 -0.425439
v 2.121762 5.656647 1.225000
v 2.121762 4.525318 1.225000
v 2.121762 5.656647 1.225000
v 0.837949 4.525318 2.302247
v 2.121762 4.525318 1.225000
v 2.121762 5.656647 1.225000
v 0.837949 5.656647 2.302247
v 0.837949 4.525318 2.302247
v 0.837949 5.656647 2.302247
v -0.837950 4.525318 2.302247
v 0.837949 4.525318 2.302247
v 0.837949 5.656647 2.302247
v -0.837950 5.656647 2.302246
v -0.837950 4.525318 2.302247
v -0.837950 5.656647 2.302246
v -2.121762 4.525318 1.224999
v -0.837950 4.525318 2.302247
v -0.837950 5.656647 2.302246
v -2.121762 5.656647 1.224998
v -2.121762 4.525318 1.224999
v -2.121762 5.656647 1.224998
v -2.412779 4.525318 -0.425438
v -2.121762 4.525318 1.224999
v -2.121762 5.656647 1.224998
v -2.412779 5.656647 -0.425438
v -2.412779 4.525318 -0.425438
v -2.412779 5.656647 -0.425438
v -1.574830 4.525318 -1.876809
v -2.412779 4.525318 -0.425438
v -2.412779 5.656647 -0.425438
v -1.574830 5.656647 -1.876809
v -1.574830 4.525318 -1.876809
v -1.574830 5.656647 -1.876809
v 0.000000 4.525318 -2.450000
v -1.574830 4.525318 -1.876809
v -1.574830 5.656647 -1.876809
v 0.000000 5.656647 -2.450001
v 0.000000 4.525318 -2.450000
v 0.000000 6.787977 -2.450001
v 1.574829 5.656647 -1.876809
v 0.000000 5.656647 -2.450001
v 0.000000 6.787977 -2.450001
v 1.574829 6.787977 -1.876809
v 1.574829 5.656647 -1.876809
v 1.574829 6.787977 -1.876809
v 2.412779 5.656647 -0.425439
v 1.574829 5.656647 -1.876809
v 1.574829 6.787977 -1.876809
v 2.412779 6.787977 -0.425440
v 2.412779 5.656647 -0.425439
v 2.412779 6.787977 -0.425440
v 2.121762 5.656647 1.225000
v 2.412779 5.656647 -0.425439
v 2.412779 6.787977 -0.425440
v 2.121762 6.787977 1.225000
v 2.121762 5.656647 1.225000
v 2.121762 6.787977 1.225000
v 0.837949 5.656647 2.302247
v 2.121762 5.656647 1.225000
v 2.121762 6.787977 1.225000
v 0.837949 6.787977 2.302247
v 0.837949 5.656647 2.302247
v 0.837949 6.787977 2.302247
v -0.837950 5.656647 2.302246
v 0.837949 5.656647 2.302247
v 0.837949 6.787977 2.302247
v -0.837950 6.787977 2.302246
v -0.837950 5.656647 2.302246
v -0.837950 6.787977 2.302246
v -2.121762 5.656647 1.224998
v -0.837950 5.656647 2.302246
v -0.837950 6.787977 2.302246
v -2.121762 6.787977 1.224998
v -2.121762 5.656647 1.224998
v -2.121762 6.787977 1.224998
v -2.412779 5.656647 -0.425438
v -2.121762 5.656647 1.224998
v -2.121762 6.787977 1.224998
v -2.412779 6.787977 -0.425438
v -2.412779 5.656647 -0.425438
v -2.412779 6.787977 -0.425438
v -1.574830 5.656647 -1.876809
v -2.412779 5.656647 -0.425438
v -2.412779 6.787977 -0.425438
v -1.574830 6.787977 -1.876809
v -1.574830 5.656647 -1.876809
v -1.574830 6.787977 -1.876809
v 0.000000 5.656647 -2.450001
v -1.574830 5.656647 -1.876809
v -1.574830 6.787977 -1.876809
v 0.000000 6.787977 -2.450001
v 0.000000 5.656647 -2.450001
v 0.000000 7.919306 -2.450002
v 1.574829 6.787977 -1.876809
v 0.000000 6.787977 -2.450001
v 0.000000 7.919306 -2.450002
v 1.574829 7.919306 -1.876810
v 1.574829 6.787977 -1.876809
v 1.574829 7.919306 -1.876810
v 2.412779 6.787977 -0.425440
v 1.574829 6.787977 -1.876809
v 1.574829 7.919306 -1.876810
v 2.412779 7.919306 -0.425440
v 2.412779 6.787977 -0.425440
v 2.412779 7.919306 -0.425440
v 2.121762 6.787977 1.225000
v 2.412779 6.787977 -0.425440
v 2.412779 7.919306 -0.425440
v 2.121762 7.919306 1.224999
v 2.121762 6.787977 1.225000
v 2.121762 7.919306 1.224999
v 0.837949 6.787977 2.302247
v 2.121762 6.787977 1.225000
v 2.121762 7.919306 1.224999
v 0.837949 7.919306 2.302246
v 0.837949 6.787977 2.302247
v 0.837949 7.919306 2.302246
v -0.837950 6.787977 2.302246
v 0.837949 6.787977 2.302247
v 0.837949 7.919306 2.302246
v -0.837950 7.919306 2.302245
v -0.837950 6.787977 2.302246
v -0.837950 7.919306 2.302245
v -2.121762 6.787977 1.224998
v -0.837950 6.787977 2.302246
v -0.837950 7.919306 2.302245
v -2.121762 7.919306 1.224998
v -2.121762 6.787977 1.224998
v -2.121762 7.919306 1.224998
v -2.412779 6.787977 -0.425438
v -2.121762 6.787977 1.224998
v -2.121762 7.919306 1.224998
v -2.412779 7.919306 -0.425440
v -2.412779 6.787977 -0.425438
v -2.412779 7.919306 -0.425440
v -1.574830 6.787977 -1.876809
v -2.412779 6.787977 -0.425438
v -2.412779 7.919306 -0.425440
v -1.574830 7.919306 -1.876810
v -1.574830 6.787977 -1.876809
v -1.574830 7.919306 -1.876810
v 0.000000 6.787977 -2.450001
v -1.574830 6.787977 -1.876809
v -1.574830 7.919306 -1.876810
v 0.000000 7.919306 -2.450002
v 0.000000 6.787977 -2.450001
v 0.000000 9.050636 -2.450002
v 1.574829 7.919306 -1.876810
v 0.000000 7.919306 -2.450002
v 0.000000 9.050636 -2.450002
v 1.574829 9.050636 -1.876810
v 1.574829 7.919306 -1.876810
v 1.574829 9.050636 -1.876810
v 2.412779 7.919306 -0.425440
v 1.574829 7.919306 -1.876810
v 1.574829 9.050636 -1.876810
v 2.412779 9.050636 -0.425440
v 2.412779 7.919306 -0.425440
v 2.412779 9.050636 -0.425440
v 2.121762 7.919306 1.224999
v 2.412779 7.919306 -0.425440
v 2.412779 9.050636 -0.425440
v 2.121762 9.050636 1.224999
v 2.121762 7.919306 1.224999
v 2.121762 9.050636 1.224999
v 0.837949 7.919306 2.302246
v 2.121762 7.919306 1.224999
v 2.121762 9.050636 1.224999
v 0.837949 9.050636 2.302245
v 0.837949 7.919306 2.302246
v 0.837949 9.050636 2.302245
v -0.837950 7.919306 2.302245
v 0.837949 7.919306 2.302246
v 0.837949 9.050636 2.302245
v -0.837950 9.050636 2.302245
v -0.837950 7.919306 2.302245
v -0.837950 9.050636 2.302245
v -2.121762 7.919306 1.224998
v -0.837950 7.919306 2.302245
v -0.837950 9.050636 2.302245
v -2.121762 9.050636 1.224998
v -2.121762 7.919306 1.224998
v -2.121762 9.050636 1.224998
v -2.412779 7.919306 -0.425440
v -2.121762 7.919306 1.224998
v -2.121762 9.050636 1.224998
v -2.412779 9.050636 -0.425440
v -2.412779 7.919306 -0.425440
v -2.412779 9.050636 -0.425440
v -1.574830 7.919306 -1.876810
v -2.412779 7.919306 -0.425440
v -2.412779 9.050636 -0.425440
v -1.574830 9.050636 -1.876810
v -1.574830 7.919306 -1.876810
v -1.574830 9.050636 -1.876810
v 0.000000 7.919306 -2.450002
v -1.574830 7.919306 -1.876810
v -1.574830 9.050636 -1.876810
v 0.000000 9.050636 -2.450002
v 0.000000 7.919306 -2.450002
v 0.000000 9.050636 -0.000001
v 0.000000 9.050636 -2.450001
v -1.574830 9.050636 -1.876810
v 0.000000 9.050636 -0.000001
v -1.574830 9.050636 -1.876810
v -2.412779 9.050636 -0.425439
v 0.000000 9.050636 -0.000001
v -2.412779 9.050636 -0.425439
v -2.121762 9.050636 1.224999
v 0.000000 9.050636 -0.000001
v -2.121762 9.050636 1.224999
v -0.837949 9.050636 2.302246
v 0.000000 9.050636 -0.000001
v -0.837949 9.050636 2.302246
v 0.837950 9.050636 2.302246
v 0.000000 9.050636 -0.000001
v 0.837950 9.050636 2.302246
v 2.121763 9.050636 1.224999
v 0.000000 9.050636 -0.000001
v 2.121763 9.050636 1.224999
v 2.412779 9.050636 -0.425439
v 0.000000 9.050636 -0.000001
v 2.412779 9.050636 -0.425439
v 1.574830 9.050636 -1.876810
v 0.000000 9.050636 -0.000001
v 1.574830 9.050636 -1.876810
v 0.000000 9.050636 -2.450001
v 0.000000 0.000000 0.000000
v 0.000000 -0.000000 -2.450000
v 1.574830 -0.000000 -1.876809
v 0.000000 0.000000 0.000000
v 1.574830 -0.000000 -1.876809
v 2.412779 -0.000000 -0.425438
v 0.000000 0.000000 0.000000
v 2.412779 -0.000000 -0.425438
v 2.121762 0.000000 1.225000
v 0.000000 0.000000 0.000000
v 2.121762 0.000000 1.225000
v 0.837949 0.000000 2.302247
v 0.000000 0.000000 0.000000
v 0.837949 0.000000 2.302247
v -0.837950 0.000000 2.302247
v 0.000000 0.000000 0.000000
v -0.837950 0.000000 2.302247
v -2.121763 0.000000 1.225000
v 0.000000 0.000000 0.000000
v -2.121763 0.000000 1.225000
v -2.412779 -0.000000 -0.425438
v 0.000000 0.000000 0.000000
v -2.412779 -0.000000 -0.425438
v -1.574830 -0.000000 -1.876809
v 0.000000 0.000000 0.000000
v -1.574830 -0.000000 -1.876809
v 0.000000 -0.000000 -2.450000
vn -0.0000 -0.0000 -1.0000
vn 0.5458 -0.0000 -0.8379
vn -0.1204 -0.0000 -0.9927
vn 0.6428 -0.0000 -0.7661
vn 0.6428 -0.0000 -0.7660
vn 0.9567 -0.0000 -0.2910
vn 0.9848 -0.0000 -0.1737
vn 0.9848 -0.0000 -0.1736
vn 0.9200 -0.0000 0.3920
vn 0.8660 -0.0000 0.5000
vn 0.4528 -0.0000 0.8916
vn 0.9199 -0.0000 0.3921
vn 0.3420 -0.0000 0.9397
vn -0.2263 -0.0000 0.9741
vn 0.4527 -0.0000 0.8917
vn -0.3420 -0.0000 0.9397
vn -0.7995 -0.0000 0.6007
vn -0.2264 -0.0000 0.9740
vn -0.8660 -0.0000 0.5000
vn -0.9986 -0.0000 -0.0537
vn -0.9848 -0.0000 -0.1736
vn -0.9848 -0.0000 -0.1737
vn -0.7304 -0.0000 -0.6830
vn -0.9986 -0.0000 -0.0538
vn -0.6428 -0.0000 -0.7660
vn -0.6428 -0.0000 -0.7661
vn -0.1205 -0.0000 -0.9927
vn -0.7304 -0.0000 -0.6831
vn -0.6428 0.0002 -0.7660
vn 0.6428 -0.0002 -0.7660
vn 0.8660 0.0003 0.5000
vn 0.6428 0.0002 -0.7661
vn -0.6428 -0.0002 -0.7661
vn -0.0000 0.0002 -1.0000
vn 0.8660 0.0002 0.5000
vn -0.8660 -0.0002 0.5000
vn 0.1205 -0.0000 -0.9927
vn 0.1205 -0.0001 -0.9927
vn 0.7304 -0.0000 -0.6831
vn 0.7304 -0.0000 -0.6830
vn 0.9986 -0.0000 -0.0538
vn 0.9986 -0.0000 -0.0537
vn 0.7995 -0.0000 0.6007
vn 0.2264 -0.0000 0.9740
vn 0.2263 -0.0000 0.9741
vn -0.4527 -0.0000 0.8917
vn -0.4528 -0.0000 0.8916
vn -0.9199 -0.0000 0.3921
vn -0.9200 -0.0000 0.3920
vn -0.9567 -0.0000 -0.2910
vn -0.5458 -0.0000 -0.8379
vn 0.1204 -0.0000 -0.9927
vn -0.0000 1.0000 -0.0000
vn -0.0000 -1.0000 -0.0000
vt 0.125000 0.000000
vt 0.000000 0.111111
vt 0.000000 0.000000
vt 0.125000 0.111111
vt 0.000000 0.222222
vt 0.125000 0.222222
vt 0.000000 0.333333
vt 0.125000 0.333333
vt 0.000000 0.444444
vt 0.125000 0.444444
vt 0.000000 0.555556
vt 0.125000 0.555556
vt 0.000000 0.666667
vt 0.125000 0.666667
vt 0.000000 0.777778
vt 0.125000 0.777778
vt 0.000000 0.888889
vt 0.125000 0.888889
vt 0.000000 1.000000
vt 0.125000 1.000000
vt 0.250000 0.000000
vt 0.250000 0.111111
vt 0.250000 0.222222
vt 0.250000 0.333333
vt 0.250000 0.444444
vt 0.250000 0.555556
vt 0.250000 0.666667
vt 0.250000 0.777778
vt 0.250000 0.888889
vt 0.250000 1.000000
vt 0.375000 0.000000
vt 0.375000 0.111111
vt 0.375000 0.222222
vt 0.375000 0.333333
vt 0.375000 0.444444
vt 0.375000 0.555556
vt 0.375000 0.666667
vt 0.375000 0.777778
vt 0.375000 0.888889
vt 0.375000 1.000000
vt 0.500000 0.000000
vt 0.500000 0.111111
vt 0.500000 0.222222
vt 0.500000 0.333333
vt 0.500000 0.444444
vt 0.500000 0.555556
vt 0.500000 0.666667
vt 0.500000 0.777778
vt 0.500000 0.888889
vt 0.500000 1.000000
vt 0.625000 0.000000
vt 0.625000 0.111111
vt 0.625000 0.222222
vt 0.625000 0.333333
vt 0.625000 0.444444
vt 0.625000 0.555556
vt 0.625000 0.666667
vt 0.625000 0.777778
vt 0.625000 0.888889
vt 0.625000 1.000000
vt 0.750000 0.000000
vt 0.750000 0.111111
vt 0.750000 0.222222
vt 0.750000 0.333333
vt 0.750000 0.444444
vt 0.750000 0.555556
vt 0.750000 0.666667
vt 0.750000 0.777778
vt 0.750000 0.888889
vt 0.750000 1.000000
vt 0.875000 0.000000
vt 0.875000 0.111111
vt 0.875000 0.222222
vt 0.875000 0.333333
vt 0.875000 0.444444
vt 0.875000 0.555556
vt 0.875000 0.666667
vt 0.875000 0.777778
vt 0.875000 0.888889
vt 0.875000 1.000000
vt 1.000000 0.000000
vt 1.000000 0.111111
vt 1.000000 0.222222
vt 1.000000 0.333333
vt 1.000000 0.444444
vt 1.000000 0.555556
vt 1.000000 0.666667
vt 1.000000 0.777778
vt 1.000000 0.888889
vt 1.000000 1.000000
vt 0.950000 0.950000
s 1
f 1/1/1 2/2/2 3/3/3
f 4/1/1 5/4/4 6/2/2
f 7/4/5 8/5/6 9/2/2
f 10/4/5 11/6/7 12/5/6
f 13/6/8 14/7/9 15/5/6
f 16/6/8 17/8/10 18/7/9
f 19/8/10 20/9/11 21/7/12
f 22/8/10 23/10/13 24/9/11
f 25/10/13 26/11/14 27/9/15
f 28/10/13 29/12/16 30/11/14
f 31/12/16 32/13/17 33/11/18
f 34/12/16 35/14/19 36/13/17
f 37/14/19 38/15/20 39/13/17
f 40/14/19 41/16/21 42/15/20
f 43/16/22 44/17/23 45/15/24
f 46/16/22 47/18/25 48/17/23
f 49/18/26 50/19/27 51/17/28
f 52/18/26 53/20/1 54/19/27
f 55/21/1 56/4/4 57/1/1
f 58/21/1 59/22/4 60/4/4
f 61/22/5 62/6/7 63/4/5
f 64/22/5 65/23/7 66/6/7
f 67/23/8 68/8/10 69/6/8
f 70/23/8 71/24/10 72/8/10
f 73/24/10 74/10/13 75/8/10
f 76/24/10 77/25/13 78/10/13
f 79/25/13 80/12/16 81/10/13
f 82/25/13 83/26/16 84/12/16
f 85/26/16 86/14/19 87/12/16
f 88/26/16 89/27/19 90/14/19
f 91/27/19 92/16/21 93/14/19
f 94/27/19 95/28/21 96/16/21
f 97/28/22 98/18/29 99/16/22
f 100/28/22 101/29/25 102/18/25
f 103/29/26 104/20/1 105/18/26
f 106/29/26 107/30/1 108/20/1
f 109/31/1 110/22/4 111/21/1
f 112/31/1 113/32/4 114/22/4
f 115/32/5 116/23/7 117/22/5
f 118/32/30 119/33/7 120/23/7
f 121/33/8 122/24/31 123/23/8
f 124/33/8 125/34/10 126/24/10
f 127/34/10 128/25/13 129/24/10
f 130/34/10 131/35/13 132/25/13
f 133/35/13 134/26/16 135/25/13
f 136/35/13 137/36/16 138/26/16
f 139/36/16 140/27/19 141/26/16
f 142/36/16 143/37/19 144/27/19
f 145/37/19 146/28/21 147/27/19
f 148/37/19 149/38/21 150/28/21
f 151/38/22 152/29/25 153/28/22
f 154/38/22 155/39/25 156/29/25
f 157/39/26 158/30/1 159/29/26
f 160/39/26 161/40/1 162/30/1
f 163/41/1 164/32/32 165/31/1
f 166/41/1 167/42/4 168/32/4
f 169/42/5 170/33/7 171/32/5
f 172/42/5 173/43/7 174/33/7
f 175/43/8 176/34/31 177/33/8
f 178/43/8 179/44/10 180/34/10
f 181/44/10 182/35/13 183/34/10
f 184/44/10 185/45/13 186/35/13
f 187/45/13 188/36/16 189/35/13
f 190/45/13 191/46/16 192/36/16
f 193/46/16 194/37/19 195/36/16
f 196/46/16 197/47/19 198/37/19
f 199/47/19 200/38/21 201/37/19
f 202/47/19 203/48/21 204/38/21
f 205/48/22 206/39/25 207/38/22
f 208/48/22 209/49/25 210/39/25
f 211/49/26 212/40/1 213/39/26
f 214/49/33 215/50/1 216/40/1
f 217/51/1 218/42/4 219/41/1
f 220/51/1 221/52/4 222/42/4
f 223/52/5 224/43/7 225/42/5
f 226/52/5 227/53/7 228/43/7
f 229/53/8 230/44/10 231/43/8
f 232/53/8 233/54/10 234/44/10
f 235/54/10 236/45/13 237/44/10
f 238/54/10 239/55/13 240/45/13
f 241/55/13 242/46/16 243/45/13
f 244/55/13 245/56/16 246/46/16
f 247/56/16 248/47/19 249/46/16
f 250/56/16 251/57/19 252/47/19
f 253/57/19 254/48/21 255/47/19
f 256/57/19 257/58/21 258/48/21
f 259/58/22 260/49/25 261/48/22
f 262/58/22 263/59/25 264/49/25
f 265/59/26 266/50/34 267/49/26
f 268/59/26 269/60/1 270/50/1
f 271/61/1 272/52/4 273/51/1
f 274/61/1 275/62/4 276/52/4
f 277/62/5 278/53/7 279/52/5
f 280/62/5 281/63/7 282/53/7
f 283/63/8 284/54/35 285/53/8
f 286/63/8 287/64/10 288/54/10
f 289/64/10 290/55/13 291/54/10
f 292/64/10 293/65/13 294/55/13
f 295/65/13 296/56/16 297/55/13
f 298/65/13 299/66/16 300/56/16
f 301/66/16 302/57/19 303/56/16
f 304/66/16 305/67/19 306/57/19
f 307/67/19 308/58/21 309/57/19
f 310/67/19 311/68/21 312/58/21
f 313/68/22 314/59/29 315/58/22
f 316/68/22 317/69/25 318/59/25
f 319/69/26 320/60/1 321/59/26
f 322/69/33 323/70/1 324/60/1
f 325/71/1 326/62/4 327/61/1
f 328/71/1 329/72/4 330/62/4
f 331/72/5 332/63/7 333/62/5
f 334/72/5 335/73/7 336/63/7
f 337/73/8 338/64/10 339/63/8
f 340/73/8 341/74/10 342/64/10
f 343/74/10 344/65/13 345/64/10
f 346/74/10 347/75/13 348/65/13
f 349/75/13 350/66/16 351/65/13
f 352/75/13 353/76/16 354/66/16
f 355/76/16 356/67/19 357/66/16
f 358/76/16 359/77/19 360/67/19
f 361/77/19 362/68/21 363/67/19
f 364/77/36 365/78/21 366/68/21
f 367/78/22 368/69/25 369/68/22
f 370/78/22 371/79/25 372/69/25
f 373/79/26 374/70/1 375/69/26
f 376/79/26 377/80/1 378/70/1
f 379/81/37 380/72/4 381/71/1
f 382/81/38 383/82/39 384/72/4
f 385/82/40 386/73/7 387/72/5
f 388/82/40 389/83/41 390/73/7
f 391/83/42 392/74/10 393/73/8
f 394/83/42 395/84/43 396/74/10
f 397/84/43 398/75/13 399/74/10
f 400/84/43 401/85/44 402/75/13
f 403/85/45 404/76/16 405/75/13
f 406/85/45 407/86/46 408/76/16
f 409/86/47 410/77/19 411/76/16
f 412/86/47 413/87/48 414/77/19
f 415/87/49 416/78/21 417/77/19
f 418/87/49 419/88/50 420/78/21
f 421/88/50 422/79/25 423/78/22
f 424/88/50 425/89/51 426/79/25
f 427/89/51 428/80/1 429/79/26
f 430/89/51 431/90/52 432/80/1
f 433/3/53 434/3/53 435/3/53
f 436/3/53 437/3/53 438/3/53
f 439/3/53 440/3/53 441/3/53
f 442/3/53 443/3/53 444/3/53
f 445/3/53 446/3/53 447/3/53
f 448/3/53 449/3/53 450/3/53
f 451/3/53 452/3/53 453/3/53
f 454/3/53 455/3/53 456/3/53
f 457/3/53 458/3/53 459/3/53
f 460/91/54 461/91/54 462/91/54
f 463/91/54 464/91/54 465/91/54
f 466/91/54 467/91/54 468/91/54
f 469/91/54 470/91/54 471/91/54
f 472/91/54 473/91/54 474/91/54
f 475/91/54 476/91/54 477/91/54
f 478/91/54 479/91/54 480/91/54
f 481/91/54 482/91/54 483/91/54
f 484/91/54 485/91/54 486/91/54
