# Blender 4.5.1 LTS
# www.blender.org
mtllib TOWER_MINER.mtl
o Cube
v -1.825691 -0.124282 2.109575
v -0.253509 14.456455 0.304388
v -1.825691 -0.124282 -2.109575
v -0.253509 14.456455 -0.304388
v 1.825691 -0.124282 2.109575
v 0.253509 14.456455 0.304388
v 1.825691 -0.124282 -2.109575
v 0.253509 14.456455 -0.304388
vn -0.9942 0.1072 -0.0000
vn -0.0000 0.1229 -0.9924
vn 0.9942 0.1072 -0.0000
vn -0.0000 0.1229 0.9924
vn -0.0000 -1.0000 -0.0000
vn -0.0000 1.0000 -0.0000
vt 0.375000 0.000000
vt 0.625000 0.000000
vt 0.625000 0.250000
vt 0.375000 0.250000
vt 0.625000 0.500000
vt 0.375000 0.500000
vt 0.625000 0.750000
vt 0.375000 0.750000
vt 0.625000 1.000000
vt 0.375000 1.000000
vt 0.125000 0.500000
vt 0.125000 0.750000
vt 0.875000 0.500000
vt 0.875000 0.750000
s 0
f 1/1/1 2/2/1 4/3/1 3/4/1
f 3/4/2 4/3/2 8/5/2 7/6/2
f 7/6/3 8/5/3 6/7/3 5/8/3
f 5/8/4 6/7/4 2/9/4 1/10/4
f 3/11/5 7/6/5 5/8/5 1/12/5
f 8/5/6 4/13/6 2/14/6 6/7/6
